<svg width="64" height="64" fill="none" xmlns="http://www.w3.org/2000/svg"><path d="M58.382 11.374v-3.75H28.919V0H12.987v7.624H5.618v3.75h3.295V60.25H5.618V64h52.764v-3.75h-3.295V11.374h3.295zM16.737 3.75h8.432v3.874h-8.432V3.75zm34.6 44.336H12.663V23.539h38.674v24.547zM12.663 60.25v-8.414h38.674v8.414H12.663zm38.674-40.461H12.663v-8.415h38.674v8.415z" fill="#fff"/><path d="M32 43.796a6.542 6.542 0 006.535-6.535c0-4.08-4.762-8.337-5.305-8.81L32 27.382l-1.23 1.07c-.543.473-5.305 4.73-5.305 8.81A6.542 6.542 0 0032 43.796zm-.005-11.309c.277.296.579.636.88 1.007 1.214 1.49 1.91 2.863 1.91 3.767A2.788 2.788 0 0132 40.046a2.788 2.788 0 01-2.784-2.785c0-1.309 1.382-3.273 2.78-4.774z" fill="#fff"/></svg>